<?xml version="1.0" encoding="UTF-8"?>
<svg id="Layer_2" data-name="Layer 2" xmlns="http://www.w3.org/2000/svg" viewBox="0 0 202.33 131.9">
  <defs>
    <style>
      .cls-1 {
        fill: #fff;
      }
    </style>
  </defs>
  <g id="Layer_1-2" data-name="Layer 1">
    <g>
      <path d="M161.37,128.63c5.38-1.6,11.38-1.87,17.07-3.9,28.88-10.26,33.13-50.51,4.17-63.25,2.01-37.92-11.99-58.28-50.63-60.97C82.51-2.93,11.69,9.73,20.9,74.7c-6.85-.09-13.87-1.2-19.07,4.17-4.65,6.58.22,29.05,7.42,32.45,7.19,3.4,12.68-1.47,20.34.25,6.05,1.36,11.94,8.35,18.2,11.15,5.92,2.65,11.27,3.18,17.17,5.31l.05.07c2.48.77,4.86,1.61,7.25,2.39,2.09.19,4.18.37,6.28.52,9.28.66,18.68.82,28.07.86,5.28-.08,10.55-.03,15.85,0h.2s11.85-.34,11.85-.34c0,0,0,0,0,.01M152.93,130.24,48.44,44.55c-6.41,8.67-6.24,25.19-8.58,27.6-6.54,6.73-14.06.58-13.95-8.64.26-20.41,13.79-43.22,35.59-45.55,10.12-1.08,18.03,6.11,10.61,13.27-3.87,3.74-15.5,2.28-23.68,13.33ZM81.15,91.08c-12.01,7.24-17.71-10.71-11.81-14.41,9.47-5.93,21.46,8.59,11.81,14.41ZM126.79,78.19c-4.21,16.22-28.03,16.04-30.21-2.59-1.4-11.98-3.23-45.58,11.62-48.81,8.12-1.77,14.45,1.67,17.51,9.31,2.84,7.09,3.08,34.4,1.08,42.09ZM161.9,85.77c-8.02,8.38-23.74,3.35-25.65-6.81-1.2-6.39-.83-34.25.37-40.92,2.1-11.65,16.43-15.85,24.81-7.56,8.38,8.27,8.47,46.93.47,55.29ZM176.48,85.07c-2.49-8.04,8.89-13.73,14.39-8.23,8.92,8.93-9.54,23.89-14.39,8.23Z"/>
      <path class="cls-1" d="M71.91,30.83c-3.87,3.74-15.5,2.28-23.68,13.33-6.41,8.67-6.24,25.19-8.58,27.6-6.54,6.73-14.06.58-13.95-8.64.26-20.41,13.79-43.22,35.59-45.55,10.12-1.08,18.03,6.11,10.61,13.27Z"/>
      <path class="cls-1" d="M107.99,26.39c8.12-1.77,14.45,1.67,17.51,9.31,2.84,7.09,3.08,34.4,1.08,42.09-4.21,16.22-28.03,16.04-30.21-2.59-1.4-11.98-3.23-45.58,11.62-48.81ZM114.89,31.45c-11.19,1.59-9.41,34.66-8.24,43.81,1.56,12.18,15.32,12,17.26,1.59,1.07-5.77.94-30.01.13-36.24-.57-4.44-3.8-9.92-9.15-9.16Z"/>
      <path class="cls-1" d="M161.22,30.09c8.38,8.27,8.47,46.93.47,55.29-8.02,8.38-23.74,3.35-25.65-6.81-1.2-6.39-.83-34.25.37-40.92,2.1-11.65,16.43-15.85,24.81-7.56ZM141.61,33.42c-5.77,5.31-5.97,44.85.25,49.65,17.58,13.58,16-32.29,14.69-40.55-1.07-6.73-8.42-15.1-14.94-9.1Z"/>
      <path class="cls-1" d="M69.12,76.28c9.47-5.93,21.46,8.59,11.81,14.41-12.01,7.24-17.71-10.71-11.81-14.41Z"/>
      <path class="cls-1" d="M190.65,76.45c8.92,8.93-9.54,23.89-14.39,8.23-2.49-8.04,8.89-13.73,14.39-8.23Z"/>
      <path d="M114.89,31.45c5.35-.76,8.58,4.72,9.15,9.16.8,6.23.94,30.47-.13,36.24-1.94,10.41-15.7,10.59-17.26-1.59-1.17-9.15-2.95-42.22,8.24-43.81Z"/>
      <path d="M141.61,33.42c6.53-6.01,13.88,2.37,14.94,9.1,1.31,8.25,2.89,54.13-14.69,40.55-6.22-4.8-6.02-44.34-.25-49.65Z"/>
    </g>
  </g>
</svg>